<svg xmlns="http://www.w3.org/2000/svg" version="1.1" xmlns:xlink="http://www.w3.org/1999/xlink" xmlns:svgjs="http://svgjs.dev/svgjs" width="1000" height="191" viewBox="0 0 1000 191"><g transform="matrix(1,0,0,1,-0.6060586229398837,0.45935936361519225)"><svg viewBox="0 0 396 76" data-background-color="#ffffff" preserveAspectRatio="xMidYMid meet" height="191" width="1000" xmlns="http://www.w3.org/2000/svg" xmlns:xlink="http://www.w3.org/1999/xlink"><g id="tight-bounds" transform="matrix(1,0,0,1,0.2399992146841896,-0.18278173630761785)"><svg viewBox="0 0 395.52 76.36556347261524" height="76.36556347261524" width="395.52"><g><svg viewBox="0 0 530.8603054754041 102.49657755075313" height="76.36556347261524" width="395.52"><g transform="matrix(1,0,0,1,135.34030547540405,14.16559067452522)"><svg viewBox="0 0 395.52 74.16539620170269" height="74.16539620170269" width="395.52"><g id="textblocktransform"><svg viewBox="0 0 395.52 74.16539620170269" height="74.16539620170269" width="395.52" id="textblock"><g><svg viewBox="0 0 395.52 74.16539620170269" height="74.16539620170269" width="395.52"><g transform="matrix(1,0,0,1,0,0)"><svg width="395.52" viewBox="1.5 -38.25 229.02999877929688 42.95000076293945" height="74.16539620170269" data-palette-color="#ff851b"><path d="M16.5 0.3L16.5 0.3Q8.75 0.3 5.13-3.65 1.5-7.6 1.5-14.08 1.5-20.55 3.73-25.88 5.95-31.2 10.35-34.63 14.75-38.05 19.88-38.05 25-38.05 27.93-35.58 30.85-33.1 30.85-28.93 30.85-24.75 28.28-22 25.7-19.25 22.25-19.25 18.8-19.25 16.9-20.78 15-22.3 15-24.03 15-25.75 16.38-26.73 17.75-27.7 20.4-27.7L20.4-27.7Q19.75-27.05 19.75-25.98 19.75-24.9 20.4-24.1 21.05-23.3 22.4-23.3 23.75-23.3 25.1-24.73 26.45-26.15 26.45-28.5 26.45-30.85 25.03-32.25 23.6-33.65 21-33.65L21-33.65Q17.6-33.65 14.83-30.9 12.05-28.15 10.6-23.9 9.15-19.65 9.15-14.95L9.15-14.95Q9.15-10.9 10.9-7.8L10.9-7.8Q11.8-6.2 13.58-5.25 15.35-4.3 17.75-4.3L17.75-4.3Q21.85-4.3 25.65-6.93 29.45-9.55 32.05-13.7L32.05-13.7 33.75-10.65Q30.8-5.85 26.35-2.78 21.9 0.3 16.5 0.3ZM44.05-5.7L44.05-5.7 45.25-16.75Q45.25-18.1 44.55-19 43.85-19.9 42.3-19.9 40.75-19.9 39.67-18.68 38.6-17.45 38.1-15.45L38.1-15.45Q37.75-12.6 37.05-7.13 36.35-1.65 36.15 0L36.15 0 29.5 0Q33.1-30.65 33.85-37.65L33.85-37.65Q34.9-38.05 36.7-38.05L36.7-38.05Q40.6-38.05 40.6-35.75L40.6-35.75 40.6-35.45Q39.75-27.6 38.8-21.65L38.8-21.65Q41.45-24.05 44.8-24.05 48.15-24.05 50.1-22.35 52.05-20.65 52.05-18.05L52.05-18.05Q52.05-17.35 51.75-15.45L51.75-15.45Q50.6-7.95 50.6-6.65L50.6-6.65Q50.6-4.3 52.15-4.3L52.15-4.3Q53.45-4.3 54.92-6.03 56.4-7.75 57.3-11.35L57.3-11.35Q59-9.55 59.35-8.5L59.35-8.5Q56.75 0.2 50.15 0.2L50.15 0.2Q47.05 0.2 45.55-1.7 44.05-3.6 44.05-5.7ZM77.5 0.25L77.5 0.25Q72.89 0.25 71.39-2.95L71.39-2.95Q68.8 0.3 64.72 0.3 60.64 0.3 57.87-2.45 55.09-5.2 55.09-9.7L55.09-9.7Q55.09-16.25 58.95-20.15 62.8-24.05 68.69-24.05L68.69-24.05Q68.84-24.05 69-24.05L69-24.05Q71.5-24.05 73.59-23.2L73.59-23.2Q74.94-24.05 76.87-24.05 78.8-24.05 79.64-23.55L79.64-23.55Q79.19-19.85 78.69-16.28 78.19-12.7 78-11.2L78-11.2Q77.55-7.8 77.55-6.3L77.55-6.3Q77.55-4.3 79.14-4.3L79.14-4.3Q80.39-4.3 81.8-5.98 83.19-7.65 84.25-11.25L84.25-11.25Q85.69-9.95 86.25-8.35L86.25-8.35Q84.8-3.6 82.34-1.68 79.89 0.25 77.5 0.25ZM69.44-20.15L69.44-20.15Q66.25-20.15 64.37-17.73 62.49-15.3 62.14-10.5L62.14-10.5Q62.09-10.05 62.09-9.65L62.09-9.65Q62.09-7.2 63.27-5.75 64.44-4.3 66.3-4.3L66.3-4.3Q69.44-4.3 71.05-8.75L71.05-8.75 72.25-19.55Q70.8-20.15 69.44-20.15ZM93.94-34.8L93.94-34.8Q93.94-34.5 92.59-24.05L92.59-24.05 99.94-24.05 99.94-20.2 92.09-20.2 91.94-18.95Q97.79-14.05 97.79-8.25L97.79-8.25Q97.79-3.7 95.47-1.7 93.14 0.3 89.89 0.3 86.64 0.3 85.14-1.43 83.64-3.15 83.64-5.6L83.64-5.6Q83.64-6.15 83.74-6.8L83.74-6.8 85.29-20.1 85.09-20.2 81.04-20.2Q80.99-20.7 80.99-21.83 80.99-22.95 81.44-24.05L81.44-24.05 85.74-24.05 87.34-37.65Q88.39-38.05 90.14-38.05L90.14-38.05Q93.94-38.05 93.94-34.8ZM94.44-8.3L94.44-8.3Q94.44-11.75 91.44-15.1L91.44-15.1Q90.54-7.65 90.54-6.5L90.54-6.5Q90.54-4.25 91.99-4.25L91.99-4.25Q93.04-4.25 93.74-5.23 94.44-6.2 94.44-8.3ZM133.19-38.05L133.19-38.05Q135.54-38.05 136.92-36.68 138.29-35.3 138.29-33.2L138.29-33.2Q138.29-29.4 135.59-27 132.89-24.6 128.44-22.5L128.44-22.5Q124.84-13.2 119.84 0L119.84 0 111.54 0Q109.84-23.8 109.52-27.68 109.19-31.55 108.82-32.25 108.44-32.95 107.39-32.95L107.39-32.95Q104.74-32.95 101.94-23.6L101.94-23.6Q99.54-24.75 98.59-25.3L98.59-25.3Q101.14-33.55 104.39-36.35L104.39-36.35Q106.59-38.25 109.64-38.25L109.64-38.25Q112.39-38.25 113.89-36.45 115.39-34.65 115.89-29.45L115.89-29.45Q116.14-26.7 116.62-18.68 117.09-10.65 117.29-8.05L117.29-8.05 117.59-8.05 125.24-29.3Q126.89-33.95 128.04-35.45L128.04-35.45Q129.94-38.05 133.19-38.05ZM134.89-31.75L134.89-31.75Q134.89-32.4 134.49-32.8 134.09-33.2 133.42-33.2 132.74-33.2 132.27-32.15 131.79-31.1 130.19-27.05L130.19-27.05Q134.89-29.5 134.89-31.75ZM142.79-11.2Q145.89-11.85 147.41-13.7 148.94-15.55 148.94-17.28 148.94-19 148.01-19.63 147.09-20.25 145.99-20.25L145.99-20.25Q143.64-20.25 141.86-17.63 140.09-15 140.09-11.38 140.09-7.75 141.81-5.98 143.54-4.2 146.09-4.2L146.09-4.2Q149.84-4.2 153.29-6.8 156.74-9.4 158.89-13.6L158.89-13.6Q159.99-12.55 160.89-11L160.89-11Q159.24-7.25 155.04-3.65L155.04-3.65Q152.94-1.9 150.06-0.8 147.19 0.3 144.14 0.3L144.14 0.3Q139.14 0.3 136.24-2.75L136.24-2.75Q133.14-6.05 133.14-11.2 133.14-16.35 137.01-20.2 140.89-24.05 146.29-24.05L146.29-24.05Q150.14-24.05 152.54-22.38 154.94-20.7 154.99-17.85L154.99-17.85Q154.99-14 151.91-11.6 148.84-9.2 143.49-8.25L143.49-8.25 142.79-11.2ZM171.54-17.5L171.54-17.5Q171.54-19.7 169.51-19.7 167.49-19.7 166.29-17.1L166.29-17.1Q171.69-12.85 171.69-7.55L171.69-7.55Q171.69-3.7 169.54-1.7 167.39 0.3 164.14 0.3 160.89 0.3 159.39-1.73 157.89-3.75 157.89-6.85L157.89-6.85Q157.89-7.8 157.94-8.25L157.94-8.25 159.69-23.5Q161.49-24.05 163.34-24.05L163.34-24.05Q166.39-24.05 166.39-21.8L166.39-21.8 166.39-21.7Q168.39-24.05 171.49-24.05L171.49-24.05Q173.74-24.05 174.99-23.03 176.24-22 176.24-20.3 176.24-18.6 174.96-17.53 173.69-16.45 171.64-16.45L171.64-16.45Q171.54-16.45 171.44-16.45L171.44-16.45Q171.54-17 171.54-17.5ZM168.44-7.8Q168.44-10.7 165.44-13.6L165.44-13.6Q164.54-6.4 164.54-6.35L164.54-6.35Q164.54-4.25 166.24-4.25L166.24-4.25Q168.44-4.25 168.44-7.8L168.44-7.8ZM198.23-15.3L198.23-15.3Q202.18-12.4 202.18-8.45 202.18-4.5 199.08-2.1 195.98 0.3 191.28 0.3L191.28 0.3Q188.23 0.3 186.21-1.23 184.18-2.75 184.18-5 184.18-7.25 185.68-8.58 187.18-9.9 189.43-10.2L189.43-10.2Q188.38-8.7 188.38-7.33 188.38-5.95 189.33-5.1L189.33-5.1Q190.28-4.25 191.73-4.25 193.18-4.25 194.13-5.33 195.08-6.4 195.08-7.8L195.08-7.8Q195.08-10.1 192.93-11.9L192.93-11.9Q191.63-12.95 190.13-13.88 188.63-14.8 188.53-14.85L188.53-14.85Q188.33-15 188.13-15.1L188.13-15.1Q187.23-14.05 185.53-12.23 183.83-10.4 182.83-9.3L182.83-9.3Q180.03-6.25 179.68-4.2L179.68-4.2Q179.58-3.8 179.58-2.68 179.58-1.55 180.26-0.35 180.93 0.85 181.88 1.45 182.83 2.05 183.76 2.43 184.68 2.8 185.36 2.95 186.03 3.1 186.03 3.15L186.03 3.15Q186.03 3.5 184.93 3.95L184.93 3.95Q182.88 4.7 180.66 4.7 178.43 4.7 176.33 3.1L176.33 3.1Q173.48 0.9 173.48-2.75L173.48-2.75Q173.48-5 174.63-7.2L174.63-7.2Q176.68-11.1 184.23-17.9L184.23-17.9Q182.38-19.75 182.38-21.85 182.38-23.95 183.96-25.4 185.53-26.85 187.68-26.85L187.68-26.85Q189.63-26.85 191.08-25.3L191.08-25.3Q192.03-24.25 192.03-22.65 192.03-21.05 190.98-19.05L190.98-19.05Q196.33-16.65 198.23-15.3ZM187.38-20.95L187.38-20.95Q188.58-22.2 188.58-22.75L188.58-22.75Q188.58-24 187.48-24.1L187.48-24.1Q186.23-24.1 186.23-22.7L186.23-22.7Q186.23-21.85 187.38-20.95ZM212.43-11.2Q215.53-11.85 217.06-13.7 218.58-15.55 218.58-17.28 218.58-19 217.66-19.63 216.73-20.25 215.63-20.25L215.63-20.25Q213.28-20.25 211.51-17.63 209.73-15 209.73-11.38 209.73-7.75 211.46-5.98 213.18-4.2 215.73-4.2L215.73-4.2Q219.48-4.2 222.93-6.8 226.38-9.4 228.53-13.6L228.53-13.6Q229.63-12.55 230.53-11L230.53-11Q228.88-7.25 224.68-3.65L224.68-3.65Q222.58-1.9 219.71-0.8 216.83 0.3 213.78 0.3L213.78 0.3Q208.78 0.3 205.88-2.75L205.88-2.75Q202.78-6.05 202.78-11.2 202.78-16.35 206.66-20.2 210.53-24.05 215.93-24.05L215.93-24.05Q219.78-24.05 222.18-22.38 224.58-20.7 224.63-17.85L224.63-17.85Q224.63-14 221.56-11.6 218.48-9.2 213.13-8.25L213.13-8.25 212.43-11.2Z" opacity="1" transform="matrix(1,0,0,1,0,0)" fill="#ff851b" class="wordmark-text-0" data-fill-palette-color="primary" id="text-0"></path></svg></g></svg></g></svg></g></svg></g><g><svg viewBox="0 0 117.83163540169089 102.49657755075313" height="102.49657755075313" width="117.83163540169089"><g><svg xmlns="http://www.w3.org/2000/svg" xmlns:xlink="http://www.w3.org/1999/xlink" version="1.1" x="0" y="0" viewBox="7.7860002517700195 13.361000061035156 84.45763397216797 73.46599578857422" enable-background="new 0 0 100 100" xml:space="preserve" height="102.49657755075313" width="117.83163540169089" class="icon-icon-0" data-fill-palette-color="accent" id="icon-0"></svg></g></svg></g></svg></g><defs></defs><mask id="6f5cb0e7-9485-4608-9325-6cfc209cbb25"><g id="SvgjsG1126"><svg viewBox="0 0 395.52 76.36556347261524" height="76.36556347261524" width="395.52"><g><svg viewBox="0 0 530.8603054754041 102.49657755075313" height="76.36556347261524" width="395.52"><g transform="matrix(1,0,0,1,135.34030547540405,14.16559067452522)"><svg viewBox="0 0 395.52 74.16539620170269" height="74.16539620170269" width="395.52"><g id="SvgjsG1125"><svg viewBox="0 0 395.52 74.16539620170269" height="74.16539620170269" width="395.52" id="SvgjsSvg1124"><g><svg viewBox="0 0 395.52 74.16539620170269" height="74.16539620170269" width="395.52"><g transform="matrix(1,0,0,1,0,0)"><svg width="395.52" viewBox="1.5 -38.25 229.02999877929688 42.95000076293945" height="74.16539620170269" data-palette-color="#ff851b"></svg></g></svg></g></svg></g></svg></g><g><svg viewBox="0 0 117.83163540169089 102.49657755075313" height="102.49657755075313" width="117.83163540169089"><g><svg xmlns="http://www.w3.org/2000/svg" xmlns:xlink="http://www.w3.org/1999/xlink" version="1.1" x="0" y="0" viewBox="7.7860002517700195 13.361000061035156 84.45763397216797 73.46599578857422" enable-background="new 0 0 100 100" xml:space="preserve" height="102.49657755075313" width="117.83163540169089" class="icon-icon-0" data-fill-palette-color="accent" id="SvgjsSvg1122"><path d="M91.609 85.407c-4.207-5.085-3.187-12-2.187-15.735 0.942-2.331 1.472-4.812 1.472-7.406 0-4.633-1.631-8.939-4.414-12.549C83.77 66.564 67.068 79.609 46.761 79.93c4.665 3.282 10.648 5.26 17.174 5.26 4.771 0 9.237-1.063 13.119-2.91 5.959 3.998 13.379 4.547 13.379 4.547C93.641 86.825 91.609 85.407 91.609 85.407z" fill="white"></path><path d="M83.426 44.923c0-17.401-16.789-31.562-37.421-31.562-20.635 0-37.422 14.161-37.422 31.562 0 3.4 0.673 6.804 2.003 10.106 1.544 5.688 3.072 15.9-2.8 23.798 1.994-0.214 10.954-1.419 18.195-6.271l0.823-0.55 0.894 0.423c5.578 2.651 11.908 4.057 18.307 4.057C66.637 76.486 83.426 62.324 83.426 44.923z" fill="white"></path></svg></g></svg></g></svg></g><defs></defs></svg></g></mask><linearGradient x1="0" x2="1" y1="0.578" y2="0.595" id="85bb7b00-b335-4b37-bfee-82f70b92eaf0"><stop stop-color="#6ee2f5" offset="0"></stop><stop stop-color="#6454f0" offset="1"></stop></linearGradient><rect width="395.5199890136719" height="76.36556243896484" fill="url(#85bb7b00-b335-4b37-bfee-82f70b92eaf0)" mask="url(#6f5cb0e7-9485-4608-9325-6cfc209cbb25)" data-fill-palette-color="accent"></rect></svg><rect width="395.52" height="76.36556347261524" fill="none" stroke="none" visibility="hidden"></rect></g></svg></g></svg>